<svg xmlns="http://www.w3.org/2000/svg" xmlns:xlink="http://www.w3.org/1999/xlink" width="131" height="131" viewBox="0 0 131 131">
  <defs>
    <filter id="Base" x="0" y="0" width="131" height="131" filterUnits="userSpaceOnUse">
      <feOffset dy="5" input="SourceAlpha"/>
      <feGaussianBlur stdDeviation="12.5" result="blur"/>
      <feFlood flood-opacity="0.2"/>
      <feComposite operator="in" in2="blur"/>
      <feComposite in="SourceGraphic"/>
    </filter>
  </defs>
  <g id="Heart" transform="translate(37.5 32.5)">
    <g transform="matrix(1, 0, 0, 1, -37.5, -32.5)" filter="url(#Base)">
      <rect id="Base-2" data-name="Base" width="56" height="56" rx="28" transform="translate(37.5 32.5)" fill="#22e38f"/>
    </g>
    <path id="heart-2" data-name="heart" d="M13.06,20.547l9.07-9.366a6.727,6.727,0,0,0-.459-9.745,6.41,6.41,0,0,0-8.747.638L12,3.025l-.923-.952A6.41,6.41,0,0,0,2.33,1.436a6.731,6.731,0,0,0-.464,9.745l9.07,9.366A1.469,1.469,0,0,0,13.06,20.547Z" transform="translate(15.999 17.498)" fill="#fff"/>
  </g>
</svg>
