<?xml version="1.0" encoding="utf-8"?>
<!-- Generator: Adobe Illustrator 19.0.0, SVG Export Plug-In . SVG Version: 6.00 Build 0)  -->
<svg version="1.1" id="Capa_1" xmlns="http://www.w3.org/2000/svg" xmlns:xlink="http://www.w3.org/1999/xlink" x="0px" y="0px"
	 viewBox="0 0 460.8 241.8" style="enable-background:new 0 0 460.8 241.8;" xml:space="preserve">
<style type="text/css">
	.st0{fill:#7F1FD4;}
</style>
<g id="XMLID_23_">
	<g id="XMLID_35_">
		<g id="XMLID_41_">
			<path id="XMLID_43_" class="st0" d="M374.4,137.2c-2.9-8.7-8.9-13-18.2-13h-54.3l69-90.5c2.7-3.6,4-7.6,4-12.2v-0.2
				c0-5.6-1.9-10.3-5.8-14.2c-3.9-3.9-8.6-5.8-14-5.8h-95.6c-6.6,0-11.8,2.7-15.7,8.2c-3.9,5.3-4.7,11.1-2.5,17.3v0.5
				c3,8.7,9.1,13,18.3,13h50.8l-70.6,92.1c-2.7,3.3-4,7.2-4,11.5v0.2c0,5.2,1.8,9.7,5.5,13.5c3.7,3.7,8.1,5.5,13.3,5.5h101.8
				c6.6,0,11.8-2.7,15.7-8.2c3.8-5.3,4.6-11.1,2.5-17.3L374.4,137.2z"/>
			<path id="XMLID_42_" class="st0" d="M98.9,163.2h101.8c6.6,0,11.8-2.7,15.7-8.2c3.8-5.3,4.6-11.1,2.5-17.3l-0.2-0.5
				c-2.9-8.7-8.9-13-18.2-13h-54.3l69-90.5c2.7-3.6,4-7.6,4-12.2v-0.2c0-5.6-1.9-10.3-5.8-14.2c-3.9-3.9-8.6-5.8-14-5.8h-95.6
				c-6.6,0-11.8,2.7-15.7,8.2c-3.9,5.3-4.7,11.1-2.5,17.3v0.5c3,8.7,9.1,13,18.3,13h50.8L84,132.6c-2.7,3.3-4,7.2-4,11.5v0.2
				c0,5.2,1.8,9.7,5.5,13.5C89.2,161.4,93.7,163.2,98.9,163.2z"/>
		</g>
		<g id="XMLID_36_">
			<g id="XMLID_39_">
				<path id="XMLID_40_" class="st0" d="M370.3,193.8c-5.6-5.4-12.2-8.2-20-8.2c-7.8,0-14.4,2.7-19.8,8.2c-5.6,5.6-8.3,12.2-8.3,20
					c0,7.8,2.8,14.4,8.3,19.8c5.4,5.4,12.1,8.2,19.8,8.2c7.8,0,14.4-2.7,20-8.2c5.4-5.4,8.2-12.1,8.2-19.8
					C378.4,206,375.7,199.4,370.3,193.8z"/>
			</g>
			<path id="XMLID_38_" class="st0" d="M28.2,56.1c7.8,0,14.4-2.7,19.8-8.2c5.6-5.6,8.3-12.2,8.3-20S53.5,13.6,48,8.2
				C42.5,2.7,35.9,0,28.2,0c-7.8,0-14.4,2.7-20,8.2C2.7,13.6,0,20.2,0,28s2.7,14.4,8.2,20C13.7,53.4,20.4,56.1,28.2,56.1z"/>
			<path id="XMLID_37_" class="st0" d="M282.1,192.1H51.2v-72.7c0-5.9-2.1-10.9-6.3-15.1c-4.2-4.2-9.2-6.3-15.1-6.3h-0.4
				c-6,0-11,2.1-15.2,6.3C10,108.5,8,113.6,8,119.4v94.5c0,6,2.1,11,6.2,15.1c4.2,4.2,9.3,6.3,15.2,6.3h0.4c0.1,0,0.1,0,0.2,0
				c0.1,0,0.1,0,0.2,0h252c5.9,0,10.9-2.1,15.1-6.2c4.2-4.2,6.3-9.3,6.3-15.2v-0.4c0-5.9-2.1-10.9-6.3-15.1
				C293,194.2,288,192.1,282.1,192.1z"/>
		</g>
	</g>
	<g id="XMLID_24_">
		<path id="XMLID_33_" class="st0" d="M449.4,200.2c0.7-2.5,2.5-3.8,5.1-3.7c2.7,0,4.3,1.3,5,3.9c0.7,2.6,1.1,5.3,1.2,8.2
			c0.1,0.6,0.1,1,0.1,1.3v0.3c0,0.1,0,0.2,0,0.3c0,0.1,0,0.2,0,0.3v0.4c0,0.3,0,0.7-0.1,1.3c-0.5,9.3-3.4,16.6-8.7,21.8
			c-5.1,4.9-11.6,7.3-19.6,7.3c-8.6,0-15.6-2.8-21-8.4c-5.1-5.3-8-12.2-8.8-20.7c-0.1-0.9-0.1-1.6-0.1-2c0-0.4,0-1.1,0.1-2
			c0.3-2.9,0.8-5.7,1.7-8.4c0.7-2.4,2.3-3.5,4.8-3.5c2.5,0,4.1,1.2,4.8,3.6l0,0.2c0.4,1.2,0.3,2.4-0.3,3.7c-1,2.1-1.5,4.2-1.5,6.5
			c0,4.7,1.9,8.8,5.7,12.2c3.8,3.4,8.4,5,13.7,5s9.9-1.7,13.7-5c3.8-3.4,5.7-7.4,5.7-12.2c0-2.2-0.5-4.4-1.4-6.4
			c-0.6-1.3-0.7-2.6-0.3-3.8L449.4,200.2z"/>
		<path id="XMLID_31_" class="st0" d="M419.5,176.9v-19.2h-10.3c-1.9,0-3.5-0.7-4.8-2c-1.3-1.3-2-2.9-2-4.8v-0.1
			c0-1.9,0.7-3.5,2-4.8c1.3-1.3,2.9-2,4.8-2h43c1.9,0,3.5,0.7,4.8,2c1.3,1.3,2,2.9,2,4.8v0.1c0,1.9-0.7,3.5-2,4.8
			c-1.3,1.3-2.9,2-4.8,2h-21.6v19.2h21.6c1.9,0,3.5,0.7,4.8,2c1.3,1.3,2,2.9,2,4.8v0.1c0,1.9-0.7,3.5-2,4.8c-1.3,1.3-2.9,2-4.8,2
			h-43c-1.9,0-3.5-0.7-4.8-2c-1.3-1.3-2-2.9-2-4.8v-0.1c0-1.9,0.7-3.5,2-4.8c1.3-1.3,2.9-2,4.8-2H419.5z"/>
		<path id="XMLID_29_" class="st0" d="M448.8,106.3c0-1.4,0.5-2.6,1.5-3.6c1-1,2.2-1.5,3.7-1.5h0.2c1.4,0,2.7,0.5,3.7,1.5
			c1,1,1.5,2.2,1.5,3.6v24.5c0,2.2-0.8,4.2-2.4,5.8c-1.6,1.6-3.5,2.4-5.8,2.4h-40.3c-2.2,0-4.2-0.8-5.8-2.4
			c-1.6-1.6-2.4-3.5-2.4-5.8v-23.2c0-1.7,0.6-3,1.9-4c1.3-1,2.8-1.4,4.4-1l0.2,0c1.2,0.3,2.2,0.8,2.9,1.8c0.7,0.9,1.1,2,1.1,3.2
			v17.6h8.3v-16.6c0-1.4,0.5-2.6,1.5-3.6c1-1,2.2-1.5,3.6-1.5h0.1c1.4,0,2.6,0.5,3.7,1.5c1,1,1.5,2.2,1.5,3.6v16.6h16.9V106.3z"/>
		<path id="XMLID_27_" class="st0" d="M449.4,53.6c0.7-2.5,2.5-3.8,5.1-3.7c2.7,0,4.3,1.3,5,3.9c0.7,2.6,1.1,5.3,1.2,8.2
			c0.1,0.6,0.1,1,0.1,1.3v0.3c0,0.1,0,0.2,0,0.3c0,0.1,0,0.2,0,0.3v0.4c0,0.3,0,0.7-0.1,1.3c-0.5,9.3-3.4,16.6-8.7,21.8
			c-5.1,4.9-11.6,7.3-19.6,7.3c-8.6,0-15.6-2.8-21-8.4c-5.1-5.3-8-12.2-8.8-20.7c-0.1-0.9-0.1-1.6-0.1-2c0-0.4,0-1.1,0.1-2
			c0.3-2.9,0.8-5.7,1.7-8.4c0.7-2.4,2.3-3.5,4.8-3.5c2.5,0,4.1,1.2,4.8,3.6l0,0.2c0.4,1.2,0.3,2.4-0.3,3.7c-1,2.1-1.5,4.2-1.5,6.5
			c0,4.7,1.9,8.8,5.7,12.2c3.8,3.4,8.4,5,13.7,5s9.9-1.7,13.7-5c3.8-3.4,5.7-7.4,5.7-12.2c0-2.2-0.5-4.4-1.4-6.4
			c-0.6-1.3-0.7-2.6-0.3-3.8L449.4,53.6z"/>
		<path id="XMLID_25_" class="st0" d="M459.3,5.9c0,2.1-0.9,3.6-2.6,4.7L439,23c-1.1,0.7-1.7,1.8-1.7,3.1c-0.1,1.3,0.4,2.4,1.4,3.2
			l0,0h13.8c1.9,0,3.5,0.7,4.8,2c1.3,1.3,2,2.9,2,4.8v0.1c0,1.9-0.7,3.5-2,4.8c-1.3,1.3-2.9,2-4.8,2h-43c-1.9,0-3.5-0.7-4.8-2
			c-1.3-1.3-2-2.9-2-4.8v-0.1c0-1.9,0.7-3.5,2-4.8c1.3-1.3,2.9-2,4.8-2h10c0.5,0,0.8-0.2,1-0.7c0.1-0.5,0-0.9-0.4-1.2l-14.4-10.8
			c-1.7-1.1-2.5-2.7-2.5-4.7v-0.2c0-2.2,1-3.9,3-5c2-1.1,3.9-1,5.8,0.2l9.9,6.5c3.1,2,6.1,2,9.2,0L450.5,1c1.9-1.2,3.8-1.3,5.8-0.2
			c2,1.1,3,2.7,3,5V5.9z"/>
	</g>
</g>
</svg>
